<?xml version="1.0" standalone="no"?>
<svg  version="1.1" 
    xmlns="http://www.w3.org/2000/svg"
    viewBox="0 0 28 32">
    <desc>
        The Icon of Educraftas
    </desc>
    
    <path d="M25.9843 22.1286C26.1145 21.9971 26.1874 21.8194 26.187 21.6343C26.1865 21.4492 26.1128 21.2718 25.9819 21.1409C25.851 21.01 25.6736 20.9363 25.4885 20.9358C25.3034 20.9354 25.1257 21.0083 24.9942 21.1385C23.7793 22.3549 22.3362 23.3194 20.7476 23.9766C19.159 24.6339 17.4562 24.9708 15.737 24.9682L15.7338 24.9679L15.7306 24.9682C13.142 24.9663 10.612 24.1973 8.46012 22.7583C6.30827 21.3194 4.63114 19.275 3.64056 16.8833C2.64998 14.4917 2.39039 11.8602 2.89457 9.32111C3.39875 6.78204 4.64409 4.44934 6.47329 2.61764C6.53881 2.55274 6.59087 2.47554 6.62646 2.39046C6.66206 2.30539 6.6805 2.21412 6.68072 2.1219C6.68094 2.02967 6.66294 1.93832 6.62775 1.85307C6.59256 1.76783 6.54087 1.69038 6.47566 1.62516C6.41045 1.55995 6.333 1.50827 6.24775 1.47308C6.16251 1.43789 6.07115 1.41989 5.97893 1.42011C5.88671 1.42033 5.79544 1.43877 5.71036 1.47436C5.62529 1.50996 5.54808 1.56202 5.48319 1.62754C3.49694 3.6118 2.12998 6.1304 1.54849 8.8771C0.967001 11.6238 1.19604 14.4803 2.20777 17.0992C3.21949 19.7182 4.97031 21.9868 7.24735 23.6292C9.52439 25.2716 12.2296 26.2171 15.034 26.3507V29H10.8143C10.6293 29.0009 10.4521 29.075 10.3215 29.2062C10.191 29.3374 10.1177 29.5149 10.1177 29.7C10.1177 29.885 10.191 30.0626 10.3215 30.1938C10.4521 30.3249 10.6293 30.3991 10.8143 30.4H20.6532C20.8382 30.3991 21.0154 30.3249 21.146 30.1938C21.2765 30.0626 21.3498 29.885 21.3498 29.7C21.3498 29.5149 21.2765 29.3374 21.146 29.2062C21.0154 29.075 20.8382 29.0009 20.6532 29H16.4339V26.3507C20.0325 26.1837 23.4388 24.6778 25.9843 22.1286Z" fill="#0B4EA6"/>
    <path d="M20.153 21.3388C17.3476 21.3388 13.8029 19.5369 10.9024 16.6364C8.87012 14.6041 7.35921 12.2585 6.64795 10.0314C6.318 9.05611 6.16966 8.02863 6.21028 6.99988C5.51942 8.30906 5.1133 9.74957 5.0186 11.2268C4.92159 12.7351 5.14721 14.2466 5.68044 15.6608C6.21367 17.0749 7.04225 18.3592 8.11094 19.4278C9.17962 20.4965 10.4639 21.3251 11.878 21.8583C13.2922 22.3915 14.8037 22.6171 16.312 22.5201C17.7911 22.4252 19.2333 22.0182 20.5438 21.3257C20.4151 21.3335 20.2854 21.3388 20.153 21.3388Z" fill="#01E4B3"/>
    <path d="M11.0829 4.1059C10.1003 4.1059 9.26516 4.38607 8.67422 4.97701C6.69595 6.95527 8.20107 11.6678 12.036 15.5028C14.7254 18.1922 17.8462 19.7356 20.153 19.7356C21.1356 19.7356 21.9707 19.4555 22.5617 18.8645C24.5401 16.8862 23.0349 12.1737 19.1999 8.33881C16.5105 5.64938 13.3899 4.1059 11.0829 4.1059ZM15.0005 9.83367C15.1918 10.0296 15.2982 10.293 15.2966 10.5668C15.2949 10.8406 15.1855 11.1027 14.9918 11.2963C14.7982 11.49 14.5361 11.5994 14.2623 11.6011C13.9885 11.6027 13.7251 11.4963 13.5292 11.305L12.7082 10.484L11.8872 11.305C11.6913 11.4963 11.4279 11.6027 11.1541 11.6011C10.8803 11.5994 10.6182 11.49 10.4245 11.2963C10.2309 11.1027 10.1214 10.8406 10.1198 10.5668C10.1182 10.293 10.2245 10.0296 10.4158 9.83367L11.2368 9.01268L10.4158 8.19172C10.2242 7.99588 10.1176 7.73237 10.1191 7.45838C10.1206 7.1844 10.2301 6.92207 10.4238 6.72833C10.6176 6.53459 10.8799 6.42509 11.1539 6.4236C11.4279 6.4221 11.6914 6.52874 11.8872 6.72035L12.7082 7.54132L13.5292 6.72035C13.725 6.52874 13.9885 6.4221 14.2625 6.4236C14.5365 6.42509 14.7988 6.53459 14.9925 6.72833C15.1863 6.92207 15.2958 7.1844 15.2973 7.45838C15.2988 7.73237 15.1921 7.99588 15.0005 8.19172L14.1796 9.01265L15.0005 9.83367ZM17.8672 17.2832C17.7217 17.4287 17.5363 17.5278 17.3344 17.568C17.1326 17.6081 16.9234 17.5875 16.7332 17.5088C16.5431 17.43 16.3806 17.2967 16.2663 17.1256C16.1519 16.9545 16.0909 16.7533 16.0909 16.5475C16.0909 16.3417 16.1519 16.1405 16.2663 15.9694C16.3806 15.7983 16.5431 15.665 16.7332 15.5862C16.9234 15.5075 17.1326 15.4869 17.3344 15.527C17.5363 15.5672 17.7217 15.6663 17.8672 15.8118C17.9638 15.9084 18.0404 16.0231 18.0927 16.1493C18.145 16.2756 18.1719 16.4109 18.1719 16.5475C18.1719 16.6841 18.145 16.8194 18.0927 16.9456C18.0404 17.0719 17.9638 17.1866 17.8672 17.2832ZM17.8672 14.1699C17.7217 14.3154 17.5363 14.4145 17.3344 14.4547C17.1326 14.4948 16.9234 14.4742 16.7332 14.3955C16.5431 14.3167 16.3806 14.1834 16.2663 14.0123C16.1519 13.8412 16.0909 13.64 16.0909 13.4342C16.0909 13.2284 16.1519 13.0272 16.2663 12.8561C16.3806 12.685 16.5431 12.5516 16.7332 12.4729C16.9234 12.3942 17.1326 12.3736 17.3344 12.4137C17.5363 12.4539 17.7217 12.553 17.8672 12.6985C18.0623 12.8936 18.1719 13.1583 18.1719 13.4342C18.1719 13.7101 18.0623 13.9747 17.8672 14.1699ZM19.5091 12.6985C19.6546 12.553 19.84 12.4539 20.0419 12.4137C20.2437 12.3736 20.4529 12.3942 20.643 12.4729C20.8332 12.5516 20.9957 12.685 21.11 12.8561C21.2244 13.0272 21.2854 13.2284 21.2854 13.4342C21.2854 13.64 21.2244 13.8412 21.11 14.0123C20.9957 14.1834 20.8332 14.3167 20.643 14.3955C20.4529 14.4742 20.2437 14.4948 20.0419 14.4547C19.84 14.4145 19.6546 14.3154 19.5091 14.1699C19.314 13.9747 19.2044 13.7101 19.2044 13.4342C19.2044 13.1583 19.314 12.8936 19.5091 12.6985ZM19.5091 15.8118C19.6546 15.6663 19.84 15.5672 20.0419 15.527C20.2437 15.4869 20.4529 15.5075 20.643 15.5862C20.8332 15.665 20.9957 15.7983 21.11 15.9694C21.2243 16.1405 21.2854 16.3417 21.2854 16.5475C21.2854 16.7533 21.2243 16.9545 21.11 17.1256C20.9957 17.2967 20.8332 17.43 20.643 17.5088C20.4529 17.5875 20.2437 17.6081 20.0419 17.568C19.84 17.5278 19.6546 17.4287 19.5091 17.2832C19.314 17.0881 19.2044 16.8234 19.2044 16.5475C19.2044 16.2716 19.314 16.0069 19.5091 15.8118Z" fill="#FF8605"/>
    <path d="M14.9235 1.32147C13.4446 1.41639 12.0026 1.82341 10.6923 2.51576C10.8208 2.50799 10.9506 2.50273 11.0829 2.50273C13.8884 2.50273 17.4331 4.30461 20.3336 7.20517C22.3658 9.23736 23.8767 11.5831 24.588 13.8102C24.918 14.7855 25.0663 15.8129 25.0257 16.8417C25.7165 15.5327 26.1226 14.0924 26.2173 12.6153C26.3145 11.107 26.0889 9.59534 25.5557 8.18107C25.0225 6.76681 24.1939 5.48248 23.1251 4.41372C22.0564 3.34497 20.772 2.51636 19.3578 1.98314C17.9435 1.44992 16.4318 1.22435 14.9235 1.32147Z" fill="#038DDC"/>
</svg>